<svg xmlns="http://www.w3.org/2000/svg" width="160" height="36" viewBox="0 0 160 36" fill="none"><path d="M159.985 13.3535H155.916V29.1394H159.985V13.3535Z" fill="#1E1E20"></path><path d="M159.985 5.79688H155.916V10.0799H159.985V5.79688Z" fill="#1E1E20"></path><path d="M151.694 6.01074V9.71246H141.292V16.1675H150.164V19.8693H141.292V29.1389H137.07V6.01074H151.694Z" fill="#1E1E20"></path><path d="M125.722 19.5633L133.247 29.1388H128.322L122.999 22.3778L121.377 24.0604V29.1694H117.309V5.91895H121.377V18.9514L127.527 12.4964H132.452L125.722 19.5633Z" fill="#1E1E20"></path><path d="M112.413 24.6419L113.606 28.0683C111.771 29.139 109.813 29.6591 107.641 29.6591C104.918 29.6285 102.807 28.8331 101.369 27.2423C99.9315 25.6514 99.1973 23.4182 99.1973 20.573C99.1973 17.7585 99.9315 15.5864 101.369 13.9956C102.807 12.4048 104.918 11.6094 107.641 11.6094C108.62 11.6094 109.446 11.6706 110.149 11.7929C110.853 11.9153 111.587 12.1295 112.322 12.4354V16.2595C111.587 15.8924 110.853 15.6476 110.211 15.4947C109.538 15.3417 108.834 15.2805 108.039 15.2805C104.949 15.3111 103.419 17.0549 103.419 20.5425C103.419 24.1524 104.918 25.9574 107.947 25.9574C109.415 25.9574 110.884 25.5291 112.413 24.6419Z" fill="#1E1E20"></path><path d="M94.8834 16.015C95.5258 17.3917 95.8623 18.8908 95.8623 20.604C95.8623 22.3172 95.5258 23.8468 94.8834 25.2235C94.2409 26.6001 93.2314 27.6709 91.9465 28.4663C90.631 29.2617 89.0402 29.6594 87.2046 29.6594C85.3078 29.6594 83.717 29.2617 82.4015 28.4663C81.0861 27.6709 80.1071 26.6001 79.434 25.2235C78.761 23.8468 78.4551 22.3172 78.4551 20.604C78.4551 18.9214 78.7916 17.3917 79.434 16.015C80.1071 14.6384 81.0861 13.5676 82.4015 12.7722C83.717 11.9768 85.3078 11.5791 87.2046 11.5791C89.0708 11.5791 90.6616 11.9768 91.9465 12.7722C93.2314 13.5676 94.2409 14.6384 94.8834 16.015ZM91.6711 20.604C91.6711 18.9214 91.2734 17.5753 90.5086 16.5963C89.7438 15.6173 88.6425 15.1279 87.2046 15.1279C85.7361 15.1279 84.6348 15.6173 83.8394 16.5963C83.0746 17.5753 82.6769 18.8908 82.6769 20.604C82.6769 22.3172 83.0746 23.6326 83.8394 24.6116C84.6042 25.5906 85.7361 26.0801 87.2046 26.0801C88.6425 26.0801 89.7438 25.5906 90.5086 24.6116C91.2734 23.6326 91.6711 22.2866 91.6711 20.604Z" fill="#1E1E20"></path><path d="M75.7934 25.6822V29.2309C74.845 29.4451 73.9578 29.5674 73.193 29.5674C71.5104 29.5369 70.2867 29.2003 69.5219 28.4967C68.7571 27.7931 68.3594 26.7223 68.3594 25.2539V5.88867H72.4282V23.9078C72.4282 24.642 72.5506 25.1621 72.7953 25.4374C73.0401 25.7128 73.4684 25.8657 74.1108 25.8657C74.7533 25.8657 75.3039 25.8045 75.7934 25.6822Z" fill="#1E1E20"></path><path d="M62.5774 19.4104C63.3116 20.3281 63.6481 21.4295 63.6481 22.7756C63.6481 24.9171 62.9751 26.5079 61.6596 27.5786C60.3441 28.6494 58.1109 29.1389 54.9904 29.1389H46.1797V6.01074H54.9904C57.8049 6.01074 59.7935 6.53082 60.9866 7.57097C62.1797 8.61112 62.7609 10.1408 62.7609 12.2211C62.7609 13.4754 62.5162 14.5155 61.9961 15.3721C61.4761 16.2287 60.65 16.9018 59.5487 17.3912C60.8336 17.8195 61.8432 18.4926 62.5774 19.4104ZM58.3862 24.9476C59.0592 24.4276 59.3652 23.6016 59.3652 22.4696C59.3652 21.3377 58.998 20.5423 58.2638 20.0222C57.5296 19.5021 56.4283 19.2574 54.9904 19.2574H50.4015V25.7125H54.9904C56.5812 25.7125 57.7131 25.4677 58.3862 24.9476ZM58.4474 12.5576C58.4474 11.4257 58.172 10.6302 57.652 10.1408C57.1319 9.65128 56.2447 9.40654 54.9904 9.40654H50.4015V15.831H54.9904C57.2849 15.831 58.4474 14.7297 58.4474 12.5576Z" fill="#1E1E20"></path><path d="M33.3002 12.5277C36.1759 15.4034 36.1759 20.0535 33.3002 22.8987L22.9293 33.3002C20.0535 36.1759 15.4034 36.1759 12.5583 33.3002L2.15679 22.9293C-0.718929 20.0535 -0.718929 15.4034 2.15679 12.5583L12.5277 2.15679C15.4034 -0.718929 20.0535 -0.718929 22.9293 2.15679L33.3002 12.5277ZM25.5296 20.3289C26.9675 18.891 26.9675 16.566 25.5296 15.1281L20.3289 9.92734C18.891 8.48948 16.566 8.48948 15.1281 9.92734L9.92734 15.1281C8.48948 16.566 8.48948 18.891 9.92734 20.3289L15.1281 25.5296C16.566 26.9675 18.891 26.9675 20.3289 25.5296L25.5296 20.3289Z" fill="#0032EB"></path></svg>