<svg xmlns="http://www.w3.org/2000/svg" width="160" height="30" viewBox="0 0 160 30" fill="none"><g clip-path="url(#clip0_2130:2773)"><path fill-rule="evenodd" clip-rule="evenodd" d="M2.08784 27.8664C3.56519 29.3763 5.61496 30.056 7.96357 29.9957C9.12104 29.9656 10.308 29.7548 11.4191 29.4322C16.512 27.9567 21.3902 23.9949 24.6395 19.719C24.7658 19.5512 24.9215 19.4351 25.0857 19.3792C25.254 19.3189 25.4434 19.3103 25.6455 19.3577C25.8433 19.405 26.0074 19.4996 26.1295 19.6287C26.2516 19.7577 26.34 19.9341 26.382 20.1406C26.6304 21.4225 26.6598 22.6011 26.4536 23.612C26.2684 24.5068 25.8896 25.2768 25.3088 25.8704C24.3954 26.8039 23.0485 27.2254 21.4533 27.1824C20.6957 27.1609 19.8918 27.0405 19.05 26.8211C18.0819 27.5309 17.0676 28.1804 16.0195 28.7526C17.8925 29.5269 19.7192 29.9527 21.3902 29.9957C23.7388 30.056 25.7886 29.3763 27.2659 27.8664C28.2382 26.8727 28.8569 25.6252 29.1558 24.1928C29.4462 22.7947 29.4209 21.2289 29.0968 19.5856C28.9495 18.8415 28.6128 18.1876 28.1204 17.6714C27.6279 17.1509 27.0008 16.7809 26.2726 16.6046C25.5529 16.4325 24.8289 16.4755 24.1681 16.7121C23.5031 16.953 22.9138 17.3832 22.4593 17.9811C19.6014 21.7451 15.3335 25.294 10.872 26.6533C9.82814 26.9716 8.82641 27.148 7.90043 27.1738C6.30523 27.2168 4.95836 26.7953 4.04501 25.8618H4.03659C3.12745 24.9326 2.71918 23.5561 2.75706 21.9215C2.77811 21.1472 2.89596 20.3212 3.11062 19.4609C2.41614 18.4715 1.78058 17.4348 1.22079 16.3637C0.463172 18.2822 0.0464838 20.1492 0.00439403 21.8569C-0.0545316 24.2573 0.614695 26.3522 2.08784 27.8664ZM13.5573 24.2616C12.5724 24.795 11.558 25.2338 10.5268 25.5435C9.35674 24.6573 8.24978 23.6679 7.21858 22.614C6.65037 22.0333 6.11162 21.4354 5.60233 20.8331H5.60654C4.01976 18.9404 2.74444 16.953 1.81425 14.9957L1.789 14.9398L1.76375 14.8839L1.72166 14.7979L1.70903 14.7721L1.65852 14.6602L1.65431 14.6516L1.59118 14.5053L1.55751 14.4365L1.52804 14.3677L1.51121 14.329L1.46491 14.2257L1.4607 14.2214L1.4144 14.1096L1.40177 14.0838L1.36389 13.9977L1.33864 13.9375L1.31759 13.8859L1.27971 13.7956L1.2713 13.7741L1.225 13.6622L1.22079 13.6493L1.18291 13.5504C0.623113 12.1222 0.256933 10.7199 0.0927825 9.39494L0.0885735 9.35192V9.34762L0.0759466 9.25728V9.25298L0.0675287 9.16695V9.14974L0.0633197 9.11963L0.0591107 9.07231L0.0549017 9.0465V9.02929L0.0506928 8.98197L0.0464838 8.94326V8.93466L0.0422748 8.88734V8.84002L0.0380658 8.797L0.0338569 8.74968V8.73678L0.0296479 8.70236L0.0254389 8.65505C0.012812 8.47868 0.00439403 8.30661 0.000185056 8.13454C-0.0545316 5.7342 0.610486 3.63927 2.08784 2.13368C3.56519 0.623785 5.61496 -0.0558819 7.96357 0.00434177C9.63032 0.0473587 11.4612 0.473226 13.3342 1.24753C12.2862 1.81966 11.2718 2.47351 10.3038 3.17899C9.46196 2.9596 8.65384 2.83916 7.89622 2.81765C6.30102 2.77463 4.95415 3.1962 4.0408 4.12966C3.12745 5.06313 2.71497 6.43967 2.75706 8.07001C2.78653 9.26158 3.05169 10.5693 3.53572 11.9415L3.53993 11.9372C3.88928 12.9352 4.35647 13.9633 4.9289 14.9957V15C5.21511 15.5162 5.53499 16.0367 5.88012 16.5573L5.88433 16.5616L5.94747 16.6605L5.98956 16.725L6.01481 16.7637L6.04007 16.8068L6.06953 16.8455L6.09478 16.8842L6.12425 16.9272C6.20001 17.0347 6.27156 17.1423 6.35153 17.2498L6.38099 17.2885L6.41046 17.3273L6.41466 17.3316L6.43992 17.366L6.46938 17.4047L6.49884 17.4434L6.52831 17.4821L6.55777 17.5208L6.58723 17.5595L6.60407 17.5811L6.6209 17.6069L6.65878 17.6542L6.69667 17.7015L6.70087 17.7058C7.43324 18.6909 8.25819 19.6631 9.17575 20.6008C10.1396 21.5859 11.1456 22.4721 12.1599 23.2464C12.6271 23.6206 13.0943 23.9562 13.5573 24.2616ZM5.61496 13.8515C5.9138 13.3783 6.23789 12.9008 6.58723 12.4233C7.34485 11.3866 8.2119 10.3628 9.17575 9.37773C10.1396 8.38834 11.1456 7.50649 12.1599 6.73219C12.7197 6.30202 13.2795 5.91056 13.8351 5.55352L13.9319 5.489L13.9698 5.46319L13.9782 5.45889L14.0077 5.44168L14.0455 5.41587L14.0497 5.41157C14.256 5.28252 14.4622 5.15777 14.6685 5.03732C15.6786 4.45229 16.6804 3.9748 17.6568 3.61776C18.9995 3.12307 20.2832 2.85206 21.4449 2.82195C23.0401 2.77893 24.387 3.2005 25.3003 4.13397L25.3045 4.12966C25.8812 4.7233 26.26 5.4933 26.4452 6.39235C26.6556 7.40325 26.6262 8.58192 26.3736 9.86382C26.3315 10.0703 26.2474 10.2467 26.1211 10.3757C25.999 10.5048 25.8349 10.5994 25.6371 10.6467C25.435 10.694 25.2414 10.6854 25.0773 10.6252C24.9131 10.565 24.7574 10.4489 24.6311 10.2811C23.381 8.63784 21.9163 7.07202 20.3043 5.66967V5.66537C19.8203 5.2438 19.3236 4.83944 18.8143 4.45659C17.7873 4.77062 16.7687 5.20939 15.7881 5.7385C16.7309 6.35794 17.6442 7.05912 18.5197 7.82052L18.5239 7.81622C19.9591 9.06371 21.2892 10.4919 22.4467 12.0147C22.9012 12.6126 23.4947 13.0428 24.1555 13.2837C24.8163 13.5246 25.5402 13.5676 26.26 13.3912C26.9839 13.2148 27.6153 12.8449 28.1035 12.3244C28.5918 11.8082 28.9327 11.1543 29.08 10.4101C29.3999 8.76689 29.4293 7.20107 29.1389 5.80302C28.8443 4.37916 28.2214 3.12737 27.2491 2.13368C25.7717 0.623785 23.722 -0.0558819 21.3734 0.00434177C16.5878 0.129091 11.6043 3.23061 8.17823 6.44397V6.43967C7.85413 6.74079 7.53425 7.05482 7.21858 7.37744C6.16213 8.45717 5.2109 9.58421 4.3691 10.7328L4.36068 10.7543C4.66373 11.8082 5.09305 12.8449 5.61496 13.8515Z" fill="#00C2FF"></path><path fill-rule="evenodd" clip-rule="evenodd" d="M51.3658 21.6675C49.9221 21.6675 48.6131 21.3448 47.4472 20.6953C46.2813 20.0457 45.368 19.151 44.7072 18.0067C44.0464 16.8625 43.7139 15.5763 43.7139 14.1395C43.7139 12.7027 44.0464 11.4122 44.7156 10.2723C45.3848 9.12804 46.3024 8.23329 47.4683 7.58373C48.6342 6.93418 49.9389 6.61155 51.3868 6.61155C52.5611 6.61155 53.6302 6.82233 54.5983 7.2396C55.5663 7.65686 56.3829 8.2634 57.0521 9.05921L55.3348 10.7111C54.2994 9.56681 53.0241 8.99469 51.5089 8.99469C50.5282 8.99469 49.6485 9.21407 48.8699 9.65285C48.0912 10.0916 47.4851 10.7025 47.0474 11.4811C46.6096 12.2597 46.3908 13.1458 46.3908 14.1352C46.3908 15.1246 46.6096 16.0107 47.0474 16.7894C47.4851 17.568 48.0912 18.1788 48.8699 18.6176C49.6485 19.0563 50.5282 19.2757 51.5089 19.2757C53.0241 19.2757 54.2994 18.6993 55.3348 17.5421L57.0521 19.2155C56.3829 20.0113 55.5621 20.6179 54.5856 21.0351C53.6092 21.4567 52.5359 21.6675 51.3658 21.6675ZM63.5971 21.6029C62.4943 21.6029 61.4968 21.3577 60.6087 20.8717C59.7206 20.3856 59.0303 19.7059 58.5337 18.8327C58.037 17.9594 57.7887 16.9743 57.7887 15.8731C57.7887 14.7719 58.037 13.7911 58.5337 12.9264C59.0303 12.0618 59.7248 11.3864 60.6087 10.9003C61.4968 10.4142 62.4901 10.169 63.5971 10.169C64.7167 10.169 65.7184 10.4142 66.6023 10.9003C67.4904 11.3864 68.1806 12.0661 68.6773 12.9264C69.174 13.7911 69.4223 14.7719 69.4223 15.8731C69.4223 16.9743 69.174 17.9594 68.6773 18.8327C68.1806 19.7059 67.4862 20.3813 66.6023 20.8717C65.7142 21.3621 64.7124 21.6029 63.5971 21.6029ZM63.5971 19.3661C64.5399 19.3661 65.3143 19.0434 65.9288 18.4025C66.5433 17.7615 66.8506 16.9184 66.8506 15.8731C66.8506 14.8278 66.5433 13.9847 65.9288 13.3437C65.3143 12.7027 64.5357 12.3801 63.5971 12.3801C62.6543 12.3801 61.884 12.7027 61.2737 13.3437C60.6676 13.9847 60.3646 14.8278 60.3646 15.8731C60.3646 16.9184 60.6676 17.7615 61.2737 18.4025C61.8798 19.0477 62.6543 19.3661 63.5971 19.3661ZM71.611 10.2938H74.17V21.461H71.611V10.2938ZM72.8989 8.45267C72.4359 8.45267 72.0445 8.30211 71.733 8.001C71.4173 7.69988 71.2616 7.32993 71.2616 6.88256C71.2616 6.43518 71.4173 6.06524 71.733 5.76412C72.0487 5.463 72.4359 5.31244 72.8989 5.31244C73.3619 5.31244 73.7533 5.45439 74.0648 5.74261C74.3805 6.02652 74.5362 6.38786 74.5362 6.81803C74.5362 7.27831 74.3847 7.66546 74.0774 7.97949C73.7702 8.29781 73.3787 8.45267 72.8989 8.45267ZM83.455 10.169C84.8313 10.169 85.9383 10.582 86.7675 11.4036C87.6008 12.2253 88.0175 13.4469 88.0175 15.0644V21.461H85.4585V15.3956C85.4585 14.4191 85.2354 13.6835 84.785 13.1888C84.3347 12.6941 83.6949 12.4446 82.8615 12.4446C81.9187 12.4446 81.178 12.7329 80.6308 13.3136C80.0836 13.89 79.8142 14.7245 79.8142 15.8129V21.4567H77.2552V10.2938H79.688V11.7349C80.1089 11.2187 80.6434 10.8272 81.2832 10.5648C81.9271 10.2981 82.6511 10.169 83.455 10.169ZM91.6541 6.82233H93.1693V20.1189H101.187V21.4567H91.6541V6.82233ZM112.35 16.4194H103.347C103.427 17.5637 103.86 18.4842 104.635 19.1897C105.413 19.8952 106.394 20.2436 107.581 20.2436C108.25 20.2436 108.865 20.1232 109.42 19.878C109.98 19.6328 110.464 19.2757 110.872 18.8025L111.689 19.7661C111.213 20.3512 110.616 20.7985 109.9 21.104C109.184 21.4094 108.397 21.5642 107.539 21.5642C106.436 21.5642 105.455 21.3233 104.605 20.8415C103.751 20.3598 103.09 19.693 102.61 18.8456C102.134 17.9938 101.895 17.0345 101.895 15.9591C101.895 14.8837 102.122 13.9244 102.581 13.0727C103.039 12.221 103.667 11.5585 104.462 11.0853C105.262 10.6121 106.158 10.3755 107.152 10.3755C108.149 10.3755 109.041 10.6121 109.833 11.0853C110.624 11.5585 111.243 12.2167 111.693 13.0598C112.143 13.9029 112.366 14.8665 112.366 15.9548L112.35 16.4194ZM107.152 11.6531C106.116 11.6531 105.245 11.993 104.542 12.6683C103.839 13.3437 103.439 14.2255 103.347 15.3139H110.978C110.881 14.2255 110.485 13.3437 109.782 12.6683C109.079 11.9887 108.204 11.6531 107.152 11.6531ZM124.901 5.94479V21.461H123.508V19.2843C123.07 20.0242 122.493 20.5877 121.778 20.9792C121.062 21.3707 120.254 21.5642 119.353 21.5642C118.343 21.5642 117.43 21.3276 116.613 20.8545C115.797 20.3813 115.153 19.7188 114.69 18.8671C114.227 18.0153 113.995 17.0475 113.995 15.9591C113.995 14.8708 114.227 13.9029 114.69 13.0512C115.153 12.1994 115.793 11.5413 116.613 11.0767C117.43 10.6078 118.347 10.3755 119.353 10.3755C120.225 10.3755 121.016 10.5605 121.715 10.9304C122.417 11.3004 122.994 11.8381 123.444 12.5522V5.94479H124.901ZM119.48 20.2436C120.229 20.2436 120.906 20.0672 121.517 19.7102C122.123 19.3532 122.603 18.8499 122.948 18.196C123.297 17.5421 123.47 16.7937 123.47 15.9591C123.47 15.1246 123.297 14.3761 122.948 13.7222C122.598 13.0684 122.123 12.5608 121.517 12.2081C120.911 11.851 120.233 11.6746 119.48 11.6746C118.718 11.6746 118.032 11.851 117.426 12.2081C116.82 12.5651 116.34 13.0684 115.995 13.7222C115.645 14.3761 115.473 15.1246 115.473 15.9591C115.473 16.7937 115.645 17.5421 115.995 18.196C116.344 18.8499 116.82 19.3575 117.426 19.7102C118.032 20.0672 118.718 20.2436 119.48 20.2436ZM138.66 10.4616V20.1232C138.66 21.9901 138.214 23.3752 137.321 24.2743C136.429 25.1734 135.082 25.625 133.281 25.625C132.283 25.625 131.341 25.4745 130.448 25.1734C129.556 24.8722 128.828 24.4593 128.268 23.9302L129.005 22.8031C129.522 23.2763 130.154 23.6462 130.899 23.913C131.644 24.1797 132.422 24.3087 133.243 24.3087C134.607 24.3087 135.608 23.9861 136.252 23.3365C136.892 22.687 137.212 21.6804 137.212 20.3167V18.9144C136.762 19.6113 136.172 20.1404 135.444 20.5017C134.716 20.8631 133.908 21.0437 133.02 21.0437C132.01 21.0437 131.092 20.8157 130.267 20.3641C129.442 19.9124 128.794 19.2757 128.323 18.4627C127.851 17.6454 127.616 16.7248 127.616 15.6924C127.616 14.66 127.851 13.7395 128.323 12.9307C128.794 12.122 129.438 11.494 130.255 11.0509C131.071 10.6035 131.993 10.3798 133.016 10.3798C133.929 10.3798 134.754 10.5691 135.491 10.9434C136.227 11.3176 136.821 11.8639 137.271 12.5737V10.4616H138.66ZM133.155 19.7231C133.933 19.7231 134.636 19.551 135.263 19.2112C135.89 18.8714 136.379 18.3939 136.728 17.7787C137.077 17.1636 137.25 16.4667 137.25 15.6881C137.25 14.9095 137.077 14.2126 136.728 13.6061C136.379 12.9996 135.895 12.5264 135.276 12.1822C134.657 11.8424 133.95 11.6703 133.159 11.6703C132.38 11.6703 131.681 11.8381 131.063 12.1736C130.444 12.5092 129.96 12.9824 129.611 13.5975C129.261 14.2126 129.089 14.9095 129.089 15.6881C129.089 16.4667 129.261 17.1636 129.611 17.7787C129.96 18.3939 130.444 18.8714 131.063 19.2112C131.681 19.551 132.38 19.7231 133.155 19.7231ZM151.847 16.4194H142.844C142.924 17.5637 143.357 18.4842 144.132 19.1897C144.91 19.8952 145.891 20.2436 147.078 20.2436C147.747 20.2436 148.362 20.1232 148.917 19.878C149.477 19.6328 149.961 19.2757 150.369 18.8025L151.186 19.7661C150.71 20.3512 150.113 20.7985 149.397 21.104C148.681 21.4094 147.894 21.5642 147.036 21.5642C145.933 21.5642 144.952 21.3233 144.102 20.8415C143.248 20.3598 142.587 19.693 142.107 18.8456C141.631 17.9938 141.392 17.0345 141.392 15.9591C141.392 14.8837 141.619 13.9244 142.078 13.0727C142.536 12.221 143.164 11.5585 143.959 11.0853C144.759 10.6121 145.655 10.3755 146.649 10.3755C147.646 10.3755 148.538 10.6121 149.33 11.0853C150.121 11.5585 150.74 12.2167 151.19 13.0598C151.64 13.9029 151.863 14.8665 151.863 15.9548L151.847 16.4194ZM146.649 11.6531C145.613 11.6531 144.742 11.993 144.039 12.6683C143.336 13.3437 142.936 14.2255 142.844 15.3139H150.475C150.378 14.2255 149.982 13.3437 149.279 12.6683C148.576 11.9887 147.701 11.6531 146.649 11.6531ZM155.967 12.6124C156.308 11.8725 156.817 11.3176 157.491 10.9391C158.164 10.5605 159.002 10.3755 159.995 10.3755V11.8166L159.646 11.7951C158.514 11.7951 157.626 12.1521 156.986 12.8619C156.346 13.5717 156.026 14.5697 156.026 15.8516V21.4567H154.574V10.4616H155.967V12.6124Z" fill="#001A38"></path></g><defs><clipPath id="clip0_2130:2773"><rect width="160" height="30" fill="white"></rect></clipPath></defs></svg>