<svg xmlns="http://www.w3.org/2000/svg" width="121" height="22" viewBox="0 0 121 22" fill="none"><path fill-rule="evenodd" clip-rule="evenodd" d="M41.5439 6.71573C41.5454 6.71563 41.5418 6.71589 41.5471 6.71547C41.5524 6.71506 41.549 6.71534 41.5504 6.71523C41.625 6.70887 42.5999 6.61504 42.9497 6.02352C43.2401 5.5314 44.5826 2.4434 45.1106 1.22174C45.2105 0.990569 45.2605 0.874982 45.4633 0.672281C45.6662 0.46958 45.7017 0.454245 45.7728 0.423575C46.0767 0.2925 46.4991 0.246131 46.9244 0.63867C47.532 1.19958 49.14 5.34746 49.3239 5.82508C49.3288 5.83806 49.3313 5.84455 49.3477 5.88114C49.3641 5.91773 49.3612 5.91207 49.3624 5.91433C49.4452 6.07567 49.7769 6.62434 50.4849 6.69033C51.1676 6.75286 54.6166 7.12735 55.8306 7.25952C56.0415 7.28249 56.147 7.29397 56.3185 7.35673C56.49 7.41948 56.5359 7.45041 56.6277 7.51226C56.9915 7.75748 57.4414 8.21087 57.085 8.81757C56.8546 9.20994 53.6535 12.1003 52.7487 12.9135C52.6301 13.0201 52.5708 13.0734 52.4894 13.1778C52.408 13.2822 52.3872 13.3214 52.3457 13.3998C52.2091 13.658 52.0526 14.0533 52.1482 14.382C52.2839 14.8506 53.1089 18.372 53.3199 19.2746C53.3442 19.3784 53.3563 19.4303 53.3662 19.5186C53.3761 19.607 53.3759 19.6385 53.3754 19.7016C53.3733 20 53.3286 20.5329 53.0576 20.8182C52.6678 21.2286 52.4333 21.2536 51.8358 21.049C51.3094 20.8678 47.7346 18.6555 46.8938 18.1331C46.8192 18.0868 46.7819 18.0636 46.6655 18.016C46.549 17.9683 46.5382 17.9659 46.5166 17.961C46.3224 17.9174 46.0161 17.8913 45.7295 18.0481C45.2659 18.3027 40.9158 20.8526 40.8454 20.8939C40.8438 20.8948 40.8478 20.8924 40.8439 20.8947C40.8399 20.897 40.8436 20.8949 40.8421 20.8958C40.7773 20.9327 39.4265 21.6853 38.992 20.4998C38.973 20.4477 38.9634 20.4217 38.941 20.2682C38.9186 20.1146 38.9209 20.0758 38.9257 19.9982C39.0048 18.7039 39.8887 15.9011 40.0017 15.5471C40.0075 15.5288 40.0104 15.5196 40.0156 15.502C40.0207 15.4844 40.0218 15.4803 40.024 15.4722C40.0892 15.2271 40.4173 13.8545 39.7794 13.202C39.1458 12.5543 36.1633 9.81784 35.5881 9.29074C35.5457 9.25183 35.5244 9.23238 35.4766 9.17939C35.4288 9.12641 35.4224 9.11773 35.4095 9.10038C35.219 8.84388 34.809 8.15598 35.4135 7.62526C35.4478 7.5951 35.465 7.58003 35.6241 7.49674C35.7833 7.41345 35.8299 7.40187 35.923 7.37869C37.401 7.01103 41.4437 6.72284 41.5439 6.71573Z" fill="#E31351"></path><path d="M10.2223 13.9984C10.2223 12.5976 9.94353 11.4877 9.3873 10.6686C8.83007 9.85008 7.9507 9.44139 6.74687 9.44139C6.19997 9.44139 5.68409 9.52351 5.20155 9.6868C4.71736 9.85008 4.33053 10.0331 4.03841 10.2326V18.4454C4.27584 18.5 4.58096 18.5512 4.95545 18.596C5.32828 18.6419 5.78047 18.6639 6.31002 18.6639C7.53153 18.6639 8.48926 18.2502 9.18221 17.4227C9.87517 16.5956 10.2223 15.4542 10.2223 13.9984ZM13.614 14.0523C13.614 15.1991 13.445 16.231 13.1078 17.1494C12.7707 18.0683 12.2871 18.8548 11.6583 19.5097C11.0287 20.1649 10.2667 20.6651 9.37329 21.0113C8.47926 21.3559 7.4675 21.5288 6.3367 21.5288C5.24224 21.5288 4.19881 21.447 3.20372 21.2834C2.20997 21.1194 1.38463 20.9381 0.728027 20.7379V0.546431L4.03841 0V7.39495C4.42123 7.19481 4.8911 7.01285 5.447 6.84957C6.00456 6.68525 6.61949 6.60407 7.29409 6.60407C8.29718 6.60407 9.19555 6.78141 9.98956 7.1356C10.7825 7.49045 11.4439 7.99464 11.973 8.65052C12.5016 9.30469 12.9072 10.0919 13.1899 11.0095C13.4727 11.9291 13.614 12.9435 13.614 14.0523Z" fill="white"></path><path d="M19.7699 21.1739H16.4595V6.90342H19.7699V21.1739ZM20.1257 2.7295C20.1257 3.34744 19.925 3.83833 19.5234 4.20284C19.122 4.56668 18.6481 4.74826 18.1012 4.74826C17.5356 4.74826 17.0521 4.56668 16.6507 4.20284C16.2495 3.83833 16.0483 3.34744 16.0483 2.7295C16.0483 2.09293 16.2495 1.59239 16.6507 1.22788C17.0521 0.864367 17.5356 0.682434 18.1012 0.682434C18.6481 0.682434 19.122 0.864367 19.5234 1.22788C19.925 1.59239 20.1257 2.09293 20.1257 2.7295Z" fill="white"></path><path d="M23.2173 3.13824L26.528 2.59247V6.9034H31.6164V9.65955H26.528V15.4717C26.528 16.6168 26.7105 17.4353 27.0749 17.9269C27.4397 18.4184 28.0596 18.6639 28.9353 18.6639C29.5376 18.6639 30.0712 18.6004 30.536 18.4723C31.0009 18.3453 31.3697 18.2272 31.6445 18.1184L32.1911 20.7379C31.8082 20.9012 31.306 21.0698 30.6861 21.2427C30.0658 21.4151 29.3359 21.5011 28.4975 21.5011C27.476 21.5011 26.6237 21.3644 25.9394 21.0918C25.2558 20.819 24.7133 20.4242 24.3114 19.9054C23.9105 19.3869 23.6278 18.7593 23.4634 18.0224C23.299 17.286 23.2173 16.4446 23.2173 15.4991V3.13824Z" fill="white"></path><path d="M65.8736 18.6093C67.1138 18.6093 68.0169 18.4001 68.5824 17.9817C69.147 17.5633 69.4304 16.9726 69.4304 16.208C69.4304 15.7533 69.3354 15.3622 69.1427 15.0346C68.9513 14.7074 68.6788 14.4116 68.3229 14.1476C67.9669 13.8846 67.533 13.6391 67.0224 13.4113C66.5119 13.1845 65.9286 12.9613 65.2717 12.7421C64.6151 12.5063 63.9812 12.2469 63.3705 11.9652C62.759 11.6835 62.2215 11.3326 61.7566 10.9139C61.2914 10.4962 60.9179 9.99597 60.6344 9.41325C60.3513 8.83223 60.2106 8.13148 60.2106 7.31307C60.2106 5.60356 60.8036 4.26124 61.9897 3.28844C63.1738 2.3153 64.7886 1.82806 66.8314 1.82806C68.0169 1.82806 69.07 1.96044 69.9916 2.2245C70.9121 2.48825 71.6371 2.7746 72.1662 3.08423L71.0998 5.86696C70.4792 5.52173 69.7993 5.25767 69.0613 5.07508C68.3229 4.89415 67.561 4.80236 66.7767 4.80236C65.8463 4.80236 65.122 4.99359 64.6018 5.37607C64.0822 5.75754 63.8221 6.29433 63.8221 6.98547C63.8221 7.40386 63.9085 7.76333 64.0822 8.06332C64.2549 8.3633 64.5011 8.63171 64.8205 8.86749C65.14 9.10497 65.5135 9.32312 65.942 9.52337C66.3705 9.72295 66.8404 9.91451 67.352 10.0954C68.2443 10.424 69.0426 10.7559 69.7452 11.0922C70.4475 11.4288 71.0404 11.8285 71.5236 12.2928C72.0072 12.7571 72.376 13.3025 72.6311 13.9298C72.8859 14.5574 73.0149 15.3174 73.0149 16.208C73.0149 17.9181 72.408 19.2421 71.1952 20.178C69.9817 21.1156 68.2086 21.5835 65.8736 21.5835C65.0893 21.5835 64.3733 21.5333 63.7264 21.4335C63.0791 21.3335 62.5042 21.2107 62.003 21.0653C61.5005 20.9197 61.0673 20.7693 60.7028 20.6151C60.338 20.4604 60.0466 20.3193 59.8281 20.192L60.8399 17.3813C61.3327 17.6541 61.9977 17.9271 62.8377 18.1998C63.6761 18.4726 64.6878 18.6093 65.8736 18.6093Z" fill="white"></path><path d="M75.1206 3.13824L78.4303 2.59247V6.9034H83.5198V9.65955H78.4303V15.4717C78.4303 16.6168 78.6127 17.4353 78.9783 17.9269C79.3427 18.4184 79.9634 18.6639 80.8383 18.6639C81.44 18.6639 81.9739 18.6004 82.439 18.4723C82.9039 18.3453 83.2731 18.2272 83.5468 18.1184L84.0937 20.7379C83.7112 20.9012 83.2093 21.0698 82.5894 21.2427C81.9691 21.4151 81.2399 21.5011 80.4008 21.5011C79.3794 21.5011 78.5267 21.3644 77.8434 21.0918C77.1581 20.819 76.6156 20.4242 76.2148 19.9054C75.8136 19.3869 75.5305 18.7593 75.3668 18.0224C75.203 17.286 75.1206 16.4446 75.1206 15.4991V3.13824Z" fill="white"></path><path d="M91.1534 18.8548C92.1749 18.8548 92.9495 18.7999 93.4788 18.6915V15.0347C93.2966 14.9802 93.0318 14.926 92.6858 14.8715C92.339 14.817 91.9561 14.7893 91.5366 14.7893C91.1721 14.7893 90.803 14.817 90.4285 14.8715C90.0539 14.926 89.7169 15.0251 89.4167 15.1718C89.1159 15.3171 88.8735 15.522 88.6917 15.7851C88.5087 16.0491 88.4176 16.3811 88.4176 16.7819C88.4176 17.5634 88.6633 18.1045 89.1566 18.4045C89.6485 18.7048 90.3141 18.8548 91.1534 18.8548ZM90.88 6.54922C91.9741 6.54922 92.8948 6.68522 93.6434 6.95796C94.3905 7.23098 94.988 7.61317 95.4353 8.10473C95.8824 8.59496 96.2019 9.19163 96.3929 9.89172C96.5848 10.5918 96.6802 11.3607 96.6802 12.1969V20.8464C96.1688 20.9557 95.3984 21.0881 94.3685 21.2428C93.338 21.3965 92.1749 21.4749 90.88 21.4749C90.0229 21.4749 89.2389 21.3921 88.527 21.2288C87.8153 21.0652 87.2091 20.8014 86.7082 20.4376C86.2053 20.0741 85.8142 19.6014 85.5311 19.0181C85.2486 18.4364 85.1069 17.7184 85.1069 16.8633C85.1069 16.0448 85.2673 15.3534 85.5858 14.7893C85.9046 14.2253 86.3384 13.7663 86.8859 13.4114C87.4332 13.0566 88.0661 12.8021 88.7864 12.6468C89.5071 12.4932 90.2593 12.4157 91.0444 12.4157C91.4092 12.4157 91.7917 12.4383 92.1936 12.4842C92.5944 12.5294 93.0229 12.6062 93.4788 12.7157V12.1702C93.4788 11.7877 93.4327 11.4243 93.3424 11.079C93.2507 10.7331 93.0916 10.4284 92.8635 10.1644C92.635 9.90068 92.3342 9.69648 91.9608 9.55016C91.5862 9.40516 91.1164 9.33191 90.5522 9.33191C89.7855 9.33191 89.0832 9.38678 88.445 9.49595C87.8067 9.60465 87.2862 9.73202 86.8859 9.87739L86.4755 7.20345C86.8946 7.05874 87.5059 6.91308 88.3079 6.76743C89.1106 6.62177 89.9679 6.54922 90.88 6.54922Z" fill="white"></path><path d="M108.28 9.87763C108.006 9.7875 107.627 9.69134 107.144 9.5916C106.66 9.49176 106.1 9.4416 105.462 9.4416C105.097 9.4416 104.709 9.47781 104.299 9.5503C103.889 9.62346 103.602 9.687 103.436 9.74159V21.1741H100.126V7.58579C100.765 7.34935 101.563 7.12676 102.52 6.91756C103.478 6.70837 104.54 6.604 105.708 6.604C105.926 6.604 106.182 6.6173 106.473 6.64492C106.765 6.67151 107.057 6.70837 107.349 6.75334C107.641 6.79925 107.923 6.85412 108.197 6.91756C108.471 6.98111 108.69 7.04031 108.853 7.0949L108.28 9.87763Z" fill="white"></path><path d="M120.564 9.22347C120.199 9.60491 119.719 10.1417 119.128 10.8328C118.534 11.5246 117.9 12.2928 117.225 13.1386C116.551 13.9844 115.871 14.867 115.187 15.7853C114.503 16.7042 113.887 17.5816 113.341 18.4187H120.728V21.1741H109.346V19.1278C109.748 18.4001 110.25 17.6092 110.851 16.7537C111.453 15.899 112.074 15.04 112.711 14.1753C113.35 13.3115 113.983 12.4887 114.613 11.7058C115.242 10.9236 115.804 10.2421 116.296 9.65978H109.702V6.90335H120.564V9.22347Z" fill="white"></path></svg>