<svg xmlns="http://www.w3.org/2000/svg" width="116" height="40" viewBox="0 0 116 40" fill="none"><path fill-rule="evenodd" clip-rule="evenodd" d="M88.34 10.4281L86.6959 16.8745L75.7143 18.3472L88.34 10.4281Z" fill="#57BAE5"></path><path fill-rule="evenodd" clip-rule="evenodd" d="M91.3185 36.4286L94.057 24.7211L90.5045 23.2103L91.3185 36.4286Z" fill="#005472"></path><path fill-rule="evenodd" clip-rule="evenodd" d="M86.6959 16.8745L83.8053 22.9772L75.7143 18.3471L86.6959 16.8745Z" fill="#34AFE4"></path><path fill-rule="evenodd" clip-rule="evenodd" d="M91.3188 36.4286L90.5049 23.2103L83.8055 22.9773L91.3188 36.4286Z" fill="#0076A7"></path><path fill-rule="evenodd" clip-rule="evenodd" d="M86.6962 16.8745L90.5049 23.2103L83.8056 22.9772L86.6962 16.8745Z" fill="#009DE2"></path><path fill-rule="evenodd" clip-rule="evenodd" d="M88.3399 10.4281L97.4563 11.6049L86.6958 16.8746L88.3399 10.4281Z" fill="#7ACDF2"></path><path fill-rule="evenodd" clip-rule="evenodd" d="M107.433 7.4996L101.695 14.3572L102.098 8.01285L107.433 7.4996Z" fill="#7ACDF2"></path><path fill-rule="evenodd" clip-rule="evenodd" d="M110.613 3.57144L107.433 7.49957L109.915 7.811L110.613 3.57144Z" fill="#7ACDF2"></path><path fill-rule="evenodd" clip-rule="evenodd" d="M104.34 11.0655L109.915 7.81095L107.433 7.49971L104.34 11.0655Z" fill="#00ABE7"></path><path fill-rule="evenodd" clip-rule="evenodd" d="M94.057 24.7213L94.3271 16.8511L90.5045 23.2106L94.057 24.7213Z" fill="#0076A7"></path><path fill-rule="evenodd" clip-rule="evenodd" d="M94.3271 16.8509L90.5046 23.2104L86.6958 16.8746L94.3271 16.8509Z" fill="#008DBE"></path><path fill-rule="evenodd" clip-rule="evenodd" d="M97.4562 11.6049L94.327 16.8508L86.6957 16.8745L97.4562 11.6049Z" fill="#57BAE5"></path><path fill-rule="evenodd" clip-rule="evenodd" d="M94.3269 16.8509L94.0569 24.7212L101.053 32.0851L94.3269 16.8509Z" fill="#00698D"></path><path fill-rule="evenodd" clip-rule="evenodd" d="M104.712 27.9714L101.018 18.5342L101.053 32.085L104.712 27.9714Z" fill="#09A1CB"></path><path fill-rule="evenodd" clip-rule="evenodd" d="M101.695 14.3574L101.018 18.5343L94.3271 16.8509L101.695 14.3574Z" fill="#09A1CB"></path><path fill-rule="evenodd" clip-rule="evenodd" d="M105.083 20.0307L101.018 18.5343L101.695 14.3574L105.083 20.0307Z" fill="#8BDAFF"></path><path fill-rule="evenodd" clip-rule="evenodd" d="M106.54 27.708L102.104 20.4046H104.637L106.54 27.708Z" fill="#7ACDF2"></path><path fill-rule="evenodd" clip-rule="evenodd" d="M98.2892 10.0532L101.695 14.3575L102.098 8.01311L98.2892 10.0532Z" fill="#57BAE5"></path><path fill-rule="evenodd" clip-rule="evenodd" d="M101.018 18.5343L94.3271 16.8509L101.053 32.0851L101.018 18.5343Z" fill="#008DBE"></path><path fill-rule="evenodd" clip-rule="evenodd" d="M104.712 27.9714L106.187 28.8187L101.071 32.0851L104.712 27.9714Z" fill="#0076A7"></path><path fill-rule="evenodd" clip-rule="evenodd" d="M106.54 27.6264L101.018 18.5343L104.712 27.9715L106.54 27.6264Z" fill="#57BAE5"></path><path fill-rule="evenodd" clip-rule="evenodd" d="M98.2892 10.0531L94.3271 16.8509L101.695 14.3574L98.2892 10.0531Z" fill="#7ACDF2"></path><path fill-rule="evenodd" clip-rule="evenodd" d="M21.1561 26.19L22.6811 26.9867L24.2067 26.19V35.2196H21.1561V26.19ZM20.9212 23.1335C20.9212 22.2686 21.7034 21.5612 22.6814 21.5612C23.6594 21.5612 24.4416 22.2686 24.4416 23.1335C24.4416 24.0178 23.6594 24.7056 22.6814 24.7056C21.7034 24.7056 20.9212 24.0178 20.9212 23.1335Z" fill="white"></path><path fill-rule="evenodd" clip-rule="evenodd" d="M13.9968 21.463V26.7494H9.75316V21.463H6.42859V35.2197H9.75316V29.9134H13.9968V35.2197H17.3214V21.463H13.9968Z" fill="white"></path><g opacity="0.5"><path d="M11.971 7.38583H9.05267V15.4799H7.86164V7.38583H4.94952V6.40058H11.971V7.38583Z" fill="#A0ABB2"></path><path d="M17.4219 11.807H15.2892V15.4799H14.0857V6.40058H17.0914C18.114 6.40058 18.8997 6.63338 19.4485 7.09899C20.0014 7.56459 20.2779 8.24222 20.2779 9.13186C20.2779 9.69723 20.124 10.1899 19.8164 10.6097C19.5129 11.0296 19.0889 11.3435 18.5443 11.5513L20.6769 15.4051V15.4799H19.3924L17.4219 11.807ZM15.2892 10.828H17.1288C17.7233 10.828 18.1951 10.6742 18.5443 10.3665C18.8977 10.0589 19.0743 9.64735 19.0743 9.13186C19.0743 8.57063 18.906 8.14037 18.5692 7.84105C18.2367 7.54173 17.7544 7.38999 17.1225 7.38583H15.2892V10.828Z" fill="#A0ABB2"></path><path d="M27.7491 13.1103H23.9453L23.091 15.4799H21.8563L25.3234 6.40058H26.371L29.8443 15.4799H28.6159L27.7491 13.1103ZM24.3069 12.125H27.3936L25.8472 7.87846L24.3069 12.125Z" fill="#A0ABB2"></path><path d="M31.8405 15.4799V6.40058H34.4034C35.1933 6.40058 35.8917 6.57518 36.4987 6.92439C37.1056 7.27359 37.5733 7.77037 37.9017 8.41474C38.2343 9.05911 38.4027 9.79909 38.4068 10.6347V11.2146C38.4068 12.071 38.2405 12.8214 37.9079 13.4657C37.5795 14.1101 37.1077 14.6048 36.4924 14.9498C35.8813 15.2949 35.1684 15.4716 34.3535 15.4799H31.8405ZM33.0378 7.38583V14.5009H34.2974C35.2203 14.5009 35.9374 14.214 36.4488 13.6403C36.9643 13.0666 37.222 12.2498 37.222 11.1897V10.6596C37.222 9.62864 36.9788 8.82838 36.4924 8.25885C36.0102 7.68515 35.3243 7.39415 34.4346 7.38583H33.0378Z" fill="#A0ABB2"></path><path d="M46.1275 11.2832H42.1927V14.5009H46.7635V15.4799H40.9954V6.40058H46.7012V7.38583H42.1927V10.3042H46.1275V11.2832Z" fill="#A0ABB2"></path><path d="M59.9537 11.2333C59.9537 12.123 59.8041 12.9004 59.5048 13.5655C59.2054 14.2265 58.7814 14.7316 58.2327 15.0808C57.6839 15.43 57.0437 15.6046 56.312 15.6046C55.597 15.6046 54.963 15.43 54.4101 15.0808C53.8572 14.7274 53.4269 14.2265 53.1193 13.578C52.8158 12.9253 52.6599 12.1708 52.6516 11.3144V10.6596C52.6516 9.78661 52.8034 9.01545 53.1068 8.34615C53.4103 7.67684 53.8385 7.1655 54.3914 6.81214C54.9485 6.45462 55.5845 6.27586 56.2996 6.27586C57.0271 6.27586 57.6673 6.45254 58.2202 6.80591C58.7773 7.15511 59.2054 7.66437 59.5048 8.33367C59.8041 8.99883 59.9537 9.77414 59.9537 10.6596V11.2333ZM58.7627 10.6472C58.7627 9.57044 58.5465 8.74524 58.1142 8.17154C57.6818 7.59369 57.077 7.30477 56.2996 7.30477C55.543 7.30477 54.9464 7.59369 54.5099 8.17154C54.0775 8.74524 53.8551 9.54342 53.8427 10.5661V11.2333C53.8427 12.2768 54.0609 13.0978 54.4974 13.6965C54.9381 14.2909 55.543 14.5882 56.312 14.5882C57.0853 14.5882 57.6839 14.3076 58.1079 13.7463C58.532 13.181 58.7502 12.3724 58.7627 11.3206V10.6472Z" fill="#A0ABB2"></path><path d="M69.5015 15.4799H68.298L63.7271 8.48333V15.4799H62.5236V6.40058H63.7271L68.3105 13.4283V6.40058H69.5015V15.4799Z" fill="#A0ABB2"></path></g><path fill-rule="evenodd" clip-rule="evenodd" d="M31.2273 35.2196H28.1569V28.3609H26.9641V25.3934H28.1569V22.0917H31.2273V25.3934H32.4204V28.3609H31.2273V35.2196Z" fill="white"></path><path fill-rule="evenodd" clip-rule="evenodd" d="M38.8552 32.0556H41.5736C42.6295 32.0556 42.9619 31.3875 42.9619 30.8176C42.9619 30.2674 42.61 29.5992 41.5736 29.5992H38.8552V32.0556ZM38.8552 26.7297H41.3386C42.3164 26.7297 42.532 26.0419 42.532 25.6685C42.532 25.2952 42.3359 24.6074 41.3386 24.6074H38.8552V26.7297ZM40.9671 21.463C45.0152 21.463 45.68 23.9395 45.68 25.1972C45.68 26.7692 44.859 27.6535 43.9983 28.0858C45.2303 28.4003 46.0907 29.6383 46.0907 31.191C46.0907 33.3528 44.8783 35.2197 40.8696 35.2197H35.5306V21.463H40.9671Z" fill="white"></path><path fill-rule="evenodd" clip-rule="evenodd" d="M54.6376 35.2197H51.3132V24.6074H47.8127V21.463H58.1384V24.6074H54.6376V35.2197Z" fill="white"></path><path fill-rule="evenodd" clip-rule="evenodd" d="M71.6283 23.605L69.4765 25.6097C68.6555 24.8627 67.6191 24.4699 66.4653 24.4699C64.4317 24.4699 62.8276 25.9831 62.8276 28.3414C62.8276 30.6995 64.4317 32.1933 66.4653 32.1933C67.6191 32.1933 68.6555 31.8199 69.4765 31.0729L71.6283 33.0776C70.3369 34.4728 68.499 35.3571 66.4653 35.3571C62.6128 35.3571 59.5033 32.2127 59.5033 28.3414C59.5033 24.4699 62.6128 21.3255 66.4653 21.3255C68.499 21.3255 70.3369 22.2098 71.6283 23.605Z" fill="white"></path></svg>