<svg xmlns="http://www.w3.org/2000/svg" viewBox="0 0 131.04 131.04"><g fill="none"><path fill="#e7004c" d="M114.29 22.254C104.103 10.482 90.024 2.734 74.746.52c-.3-.05-.599-.05-.898-.05v2.113V.47c-3.146 0-5.842 2.365-6.291 5.484-.5 3.471 1.897 6.741 5.392 7.244 12.282 1.811 23.565 8 31.803 17.508a52.774 52.774 0 0112.882 34.562c0 14.037-5.443 27.268-15.278 37.179-9.886 9.961-22.966 15.395-36.896 15.395-11.333 0-22.118-3.623-31.204-10.414-1.099-.856-2.397-1.258-3.795-1.258a6.368 6.368 0 00-5.092 2.566c-2.097 2.817-1.498 6.842 1.298 8.955 11.283 8.502 24.664 12.98 38.793 12.98 17.325 0 33.65-6.792 45.883-19.168 12.282-12.376 19.022-28.777 19.022-46.235-.05-15.847-5.742-31.141-16.077-43.014zm-4.494 87.69c-11.883 11.973-27.61 18.513-44.385 18.513-13.63 0-26.611-4.327-37.545-12.527-1.847-1.409-2.247-4.075-.849-5.987.85-1.107 2.097-1.71 3.395-1.71.899 0 1.748.251 2.547.855 9.436 7.093 20.67 10.867 32.452 10.867 14.529 0 28.159-5.685 38.394-16.049 10.285-10.364 15.926-24.098 15.926-38.688 0-13.231-4.743-26.01-13.38-35.971-8.537-9.86-20.32-16.35-33.101-18.212-2.297-.352-3.895-2.515-3.595-4.83.3-2.113 2.097-3.672 4.194-3.672.2 0 .399 0 .599.05 14.778 2.163 28.358 9.61 38.244 21.03 9.985 11.52 15.477 26.26 15.477 41.605 0 16.904-6.54 32.802-18.373 44.725z"></path><path fill="#7a18ff" d="M23.522 96.661c-6.79-9.156-10.334-20.023-10.334-31.443 0-3.471.349-6.993 1.048-10.414a4.292 4.292 0 014.194-3.42h38.743c3.395 0 6.141-2.869 6.141-6.39 0-3.522-2.746-6.39-6.14-6.39h-34.4a1.284 1.284 0 01-1.149-.704c-.1-.201-.35-.754.05-1.408 1.348-2.063 2.846-4.076 4.444-5.887 8.238-9.508 19.521-15.696 31.803-17.507 3.445-.503 5.891-3.773 5.392-7.245C62.864 2.734 60.17.37 57.024.37c-.3 0-.6 0-.9.05-15.277 2.214-29.356 9.962-39.541 21.734C6.248 34.077.606 49.32.606 65.118c0 14.187 4.443 27.72 12.881 39.09a6.368 6.368 0 005.093 2.566 6.367 6.367 0 003.794-1.258 6.403 6.403 0 002.496-4.226c.1-1.61-.349-3.27-1.348-4.629zm-2.546 7.245a4.31 4.31 0 01-2.546.855c-1.298 0-2.546-.603-3.395-1.71C6.897 92.083 2.603 79.003 2.603 65.218c0-15.294 5.492-30.085 15.477-41.606 9.886-11.42 23.466-18.866 38.244-21.029.2-.05.4-.05.6-.05a4.248 4.248 0 014.193 3.672c.35 2.315-1.248 4.478-3.594 4.83-12.782 1.862-24.564 8.351-33.102 18.212a52.977 52.977 0 00-4.593 6.138c-1.498 2.314.15 5.383 2.896 5.383h34.4c2.246 0 4.043 1.912 4.043 4.276 0 2.365-1.797 4.276-4.044 4.276H18.38a6.33 6.33 0 00-6.24 5.132 55.554 55.554 0 00-1.05 10.816c0 11.873 3.745 23.193 10.785 32.701 1.348 1.862.948 4.528-.899 5.937z"></path><g fill="#374151"><path d="M101.259 38.605H74.548c-3.495 0-6.341 2.867-6.341 6.389 0 3.521 2.846 6.39 6.34 6.39h26.712c3.495 0 6.34-2.869 6.34-6.39 0-3.522-2.845-6.39-6.34-6.39zm0 10.665H74.548c-2.347 0-4.244-1.912-4.244-4.276 0-2.365 1.897-4.276 4.244-4.276h26.71c2.347 0 4.244 1.911 4.244 4.276-.05 2.364-1.947 4.276-4.243 4.276zM26.218 57.621c-3.494 0-6.34 2.868-6.34 6.39 0 12.577 4.693 24.45 13.28 33.355 8.588 8.955 20.07 13.935 32.253 13.935 12.182 0 23.665-4.93 32.253-13.935 8.537-8.905 13.28-20.778 13.28-33.355 0-3.522-2.845-6.39-6.34-6.39zm82.58 6.39c0 12.024-4.494 23.343-12.682 31.845-8.188 8.553-19.122 13.282-30.755 13.282s-22.567-4.729-30.755-13.282c-8.188-8.502-12.681-19.821-12.681-31.845 0-2.365 1.897-4.277 4.244-4.277h78.385c2.346 0 4.244 1.912 4.244 4.277z"></path><path d="M65.411 100.636c17.924 0 32.702-14.187 34.75-32.349H30.661c2.047 18.162 16.825 32.349 34.75 32.349zM87.28 89.719c-6.041 5.685-13.78 8.804-21.868 8.804s-15.827-3.12-21.868-8.804c-5.442-5.081-9.087-11.873-10.385-19.319h64.556c-1.348 7.395-4.993 14.187-10.435 19.319zM84.633 23.763c-5.242-3.622-12.082-5.584-19.272-5.584-7.24 0-14.13 2.012-19.371 5.685-1.848 1.308-2.647 3.622-1.948 5.785a5.098 5.098 0 004.893 3.623l32.902-.05c2.247 0 4.194-1.46 4.893-3.623.599-2.213-.2-4.528-2.097-5.836zm0 5.132c-.4 1.258-1.548 2.113-2.846 2.113l-32.902.05c-1.298 0-2.446-.855-2.846-2.113-.399-1.258.1-2.616 1.149-3.37 4.893-3.422 11.383-5.283 18.173-5.283 6.79 0 13.23 1.861 18.074 5.232 1.098.755 1.597 2.113 1.198 3.37z"></path></g></g></svg>